<?xml version="1.0" encoding="UTF-8" standalone="no"?>
<!-- Created with Inkscape (http://www.inkscape.org/) -->

<svg
   width="61.207008mm"
   height="61.207008mm"
   viewBox="0 0 61.207008 61.207008"
   version="1.1"
   id="svg1"
   xml:space="preserve"
   sodipodi:docname="logo.svg"
   inkscape:version="1.3.2 (091e20e, 2023-11-25, custom)"
   inkscape:export-filename="logo.png"
   inkscape:export-xdpi="164.20203"
   inkscape:export-ydpi="164.20203"
   xmlns:inkscape="http://www.inkscape.org/namespaces/inkscape"
   xmlns:sodipodi="http://sodipodi.sourceforge.net/DTD/sodipodi-0.dtd"
   xmlns:xlink="http://www.w3.org/1999/xlink"
   xmlns="http://www.w3.org/2000/svg"
   xmlns:svg="http://www.w3.org/2000/svg"><sodipodi:namedview
     id="namedview1"
     pagecolor="#505050"
     bordercolor="#ffffff"
     borderopacity="1"
     inkscape:showpageshadow="0"
     inkscape:pageopacity="0"
     inkscape:pagecheckerboard="1"
     inkscape:deskcolor="#505050"
     inkscape:document-units="mm"
     showgrid="false"
     inkscape:zoom="1.8565376"
     inkscape:cx="40.397781"
     inkscape:cy="143.54678"
     inkscape:window-width="1366"
     inkscape:window-height="697"
     inkscape:window-x="-8"
     inkscape:window-y="-8"
     inkscape:window-maximized="1"
     inkscape:current-layer="g210" /><defs
     id="defs1"><linearGradient
       id="linearGradient340"
       inkscape:collect="always"><stop
         style="stop-color:#fdf9ee;stop-opacity:1;"
         offset="0"
         id="stop338" /><stop
         style="stop-color:#fdfaee;stop-opacity:0.33333333;"
         offset="0.66496164"
         id="stop342" /><stop
         style="stop-color:#fdfbee;stop-opacity:0;"
         offset="1"
         id="stop340" /></linearGradient><linearGradient
       id="linearGradient126"
       inkscape:collect="always"><stop
         style="stop-color:#fdf9ee;stop-opacity:1;"
         offset="0"
         id="stop124" /><stop
         style="stop-color:#fdf9ee;stop-opacity:0.6627451;"
         offset="0.65517241"
         id="stop341" /><stop
         style="stop-color:#fdf9ee;stop-opacity:0;"
         offset="1"
         id="stop126" /></linearGradient><inkscape:path-effect
       effect="powermask"
       id="path-effect210"
       is_visible="true"
       lpeversion="1"
       uri="#mask-powermask-path-effect210"
       invert="false"
       hide_mask="false"
       background="true"
       background_color="#ffffffff" /><filter
       style="color-interpolation-filters:sRGB"
       inkscape:label="Blur"
       id="filter33"
       x="-0.063013479"
       y="-0.067916639"
       width="1.126027"
       height="1.1358333"><feGaussianBlur
         stdDeviation="3 3"
         result="blur"
         id="feGaussianBlur33" /></filter><filter
       style="color-interpolation-filters:sRGB"
       inkscape:label="Blur"
       id="filter22"
       x="-0.012655881"
       y="-0.013911687"
       width="1.025311"
       height="1.0278234"><feGaussianBlur
         stdDeviation="0.6 0.6"
         result="blur"
         id="feGaussianBlur22" /></filter><filter
       style="color-interpolation-filters:sRGB"
       inkscape:label="Blur"
       id="filter25"
       x="-0.085919544"
       y="-0.085918851"
       width="1.1718391"
       height="1.1718377"><feGaussianBlur
         stdDeviation="0.5 0.5"
         result="blur"
         id="feGaussianBlur25" /></filter><filter
       id="mask-powermask-path-effect90_inverse"
       inkscape:label="filtermask-powermask-path-effect90"
       style="color-interpolation-filters:sRGB"
       height="100"
       width="100"
       x="-50"
       y="-50"><feColorMatrix
         id="mask-powermask-path-effect90_primitive1"
         values="1"
         type="saturate"
         result="fbSourceGraphic" /><feColorMatrix
         id="mask-powermask-path-effect90_primitive2"
         values="-1 0 0 0 1 0 -1 0 0 1 0 0 -1 0 1 0 0 0 1 0 "
         in="fbSourceGraphic" /></filter><filter
       id="mask-powermask-path-effect211_inverse"
       inkscape:label="filtermask-powermask-path-effect211"
       style="color-interpolation-filters:sRGB"
       height="100"
       width="100"
       x="-50"
       y="-50"><feColorMatrix
         id="mask-powermask-path-effect211_primitive1"
         values="1"
         type="saturate"
         result="fbSourceGraphic" /><feColorMatrix
         id="mask-powermask-path-effect211_primitive2"
         values="-1 0 0 0 1 0 -1 0 0 1 0 0 -1 0 1 0 0 0 1 0 "
         in="fbSourceGraphic" /></filter><filter
       id="mask-powermask-path-effect242_inverse"
       inkscape:label="filtermask-powermask-path-effect242"
       style="color-interpolation-filters:sRGB"
       height="100"
       width="100"
       x="-50"
       y="-50"><feColorMatrix
         id="mask-powermask-path-effect242_primitive1"
         values="1"
         type="saturate"
         result="fbSourceGraphic" /><feColorMatrix
         id="mask-powermask-path-effect242_primitive2"
         values="-1 0 0 0 1 0 -1 0 0 1 0 0 -1 0 1 0 0 0 1 0 "
         in="fbSourceGraphic" /></filter><filter
       style="color-interpolation-filters:sRGB"
       inkscape:label="Blur"
       id="filter19"
       x="-0.11608666"
       y="-0.11625789"
       width="1.2321734"
       height="1.2323418"><feGaussianBlur
         stdDeviation="0.66 0.66"
         result="blur"
         id="feGaussianBlur19" /></filter><filter
       id="mask-powermask-path-effect124_inverse"
       inkscape:label="filtermask-powermask-path-effect124"
       style="color-interpolation-filters:sRGB"
       height="100"
       width="100"
       x="-50"
       y="-50"><feColorMatrix
         id="mask-powermask-path-effect124_primitive1"
         values="1"
         type="saturate"
         result="fbSourceGraphic" /><feColorMatrix
         id="mask-powermask-path-effect124_primitive2"
         values="-1 0 0 0 1 0 -1 0 0 1 0 0 -1 0 1 0 0 0 1 0 "
         in="fbSourceGraphic" /></filter><filter
       id="mask-powermask-path-effect338_inverse"
       inkscape:label="filtermask-powermask-path-effect338"
       style="color-interpolation-filters:sRGB"
       height="100"
       width="100"
       x="-50"
       y="-50"><feColorMatrix
         id="mask-powermask-path-effect338_primitive1"
         values="1"
         type="saturate"
         result="fbSourceGraphic" /><feColorMatrix
         id="mask-powermask-path-effect338_primitive2"
         values="-1 0 0 0 1 0 -1 0 0 1 0 0 -1 0 1 0 0 0 1 0 "
         in="fbSourceGraphic" /></filter><radialGradient
       inkscape:collect="always"
       xlink:href="#linearGradient340"
       id="radialGradient24-7-2"
       cx="130.60352"
       cy="128.42776"
       fx="130.60352"
       fy="128.42776"
       r="31.503504"
       gradientUnits="userSpaceOnUse"
       spreadMethod="pad"
       gradientTransform="translate(-100.00001,-97.824263)" /><filter
       id="mask-powermask-path-effect341_inverse"
       inkscape:label="filtermask-powermask-path-effect341"
       style="color-interpolation-filters:sRGB"
       height="100"
       width="100"
       x="-50"
       y="-50"><feColorMatrix
         id="mask-powermask-path-effect341_primitive1"
         values="1"
         type="saturate"
         result="fbSourceGraphic" /><feColorMatrix
         id="mask-powermask-path-effect341_primitive2"
         values="-1 0 0 0 1 0 -1 0 0 1 0 0 -1 0 1 0 0 0 1 0 "
         in="fbSourceGraphic" /></filter><mask
       maskUnits="userSpaceOnUse"
       id="mask341"><path
         id="path341"
         clip-path="none"
         mask="none"
         style="display:inline;fill:url(#radialGradient341);stroke:none;stroke-width:1.8;stroke-linecap:round;stroke-linejoin:round;stroke-dasharray:none;stroke-opacity:1;paint-order:stroke markers fill"
         inkscape:label="path23"
         d="m 161.20702,128.42776 a 30.603505,30.603502 0 0 1 -30.6035,30.60351 30.603505,30.603502 0 0 1 -30.60351,-30.60351 30.603505,30.603502 0 0 1 30.60351,-30.603496 30.603505,30.603502 0 0 1 30.6035,30.603496 z" /></mask><radialGradient
       inkscape:collect="always"
       xlink:href="#linearGradient126"
       id="radialGradient341"
       gradientUnits="userSpaceOnUse"
       gradientTransform="translate(3.3e-6)"
       cx="130.60352"
       cy="128.42776"
       fx="130.60352"
       fy="128.42776"
       r="31.503504"
       spreadMethod="pad" /></defs><g
     inkscape:groupmode="layer"
     id="layer5"
     inkscape:label="F"
     style="display:inline"><path
       id="path23-1-9"
       clip-path="none"
       mask="none"
       style="display:inline;fill:url(#radialGradient24-7-2);stroke:none;stroke-width:1.8;stroke-linecap:round;stroke-linejoin:round;stroke-dasharray:none;stroke-opacity:1;paint-order:stroke markers fill"
       inkscape:label="path23"
       d="M 61.20701,30.603497 A 30.603504,30.603502 0 0 1 30.60351,61.207007 30.603504,30.603502 0 0 1 0,30.603497 30.603504,30.603502 0 0 1 30.60351,0 30.603504,30.603502 0 0 1 61.20701,30.603497 Z" /><g
       inkscape:groupmode="layer"
       id="g210"
       inkscape:label="T1"
       style="display:inline;stroke-width:0.999999"
       mask="url(#mask341)"
       transform="translate(-100.00001,-97.824264)"><g
         inkscape:label="Contorn"
         inkscape:groupmode="layer"
         id="g194"
         style="display:inline;fill:none;stroke:#303538;stroke-width:1.00987;stroke-dasharray:none;stroke-opacity:1;paint-order:markers fill stroke;filter:url(#filter25)"
         transform="matrix(0.65368371,0,0,0.6534181,35.021102,51.758292)"><g
           id="g181"
           style="display:inline;fill:none;fill-opacity:1;stroke:#303538;stroke-width:1.00987;stroke-dasharray:none;stroke-opacity:1;paint-order:markers fill stroke"><path
             id="path180"
             style="display:inline;fill:none;stroke:#303538;stroke-width:1.00987;stroke-linecap:round;stroke-linejoin:round;stroke-dasharray:none;stroke-opacity:1;paint-order:markers fill stroke"
             d="M 150.4765,93.707473 C 138.06812,83.676357 122.37459,78.000663 105.87176,78.155149 80.754962,78.530151 57.770707,92.352372 45.664885,114.36245 m 122.212235,0.18585 c -0.96965,-1.77534 -2.01817,-3.49016 -3.12422,-5.15643"
             sodipodi:nodetypes="ccccc" /><path
             id="path181"
             style="display:inline;opacity:1;fill:none;fill-opacity:1;stroke:#303538;stroke-width:1.00987;stroke-linecap:round;stroke-linejoin:round;stroke-dasharray:none;stroke-opacity:1;paint-order:markers fill stroke"
             d="m 82.925171,213.8009 c 7.513663,2.72018 15.623119,4.19051 24.077079,4.15634 8.17222,-0.093 16.26485,-1.61831 23.91017,-4.5067 M 37.176542,142.94683 c -0.196385,1.88503 -0.316028,3.77726 -0.358634,5.67201 0.156416,19.34743 8.16437,36.79688 20.974947,49.35357 m 98.196075,-0.57929 c 13.14626,-13.06107 20.56838,-30.80776 20.63491,-49.33911 l -0.009,-1.13016 c -0.0763,-1.26782 -0.18706,-2.53333 -0.33228,-3.79512"
             sodipodi:nodetypes="cccccccccc" /></g><g
           id="g193"
           style="display:inline;fill:none;stroke:#303538;stroke-width:1.00987;stroke-dasharray:none;stroke-opacity:1"><g
             id="g192"
             transform="translate(-0.04793249,-0.60463733)"
             style="display:inline;fill:none;stroke:#1b3133;stroke-width:1.00987;stroke-dasharray:none;stroke-opacity:1;paint-order:markers fill stroke"><g
               id="g184"
               style="display:inline;fill:none;stroke:#1b3133;stroke-width:1.00987;stroke-dasharray:none;stroke-opacity:1;paint-order:markers fill stroke"
               transform="matrix(0.70710677,-0.7073942,0.70681948,0.70710678,-43.455953,155.33132)"><g
                 id="g183"
                 transform="translate(-1.3657795,15.381255)"
                 style="display:inline;fill:none;fill-opacity:1;stroke:#1b3133;stroke-width:1.00987;stroke-dasharray:none;stroke-opacity:1"><path
                   id="path196-1"
                   style="display:inline;fill:none;fill-opacity:1;stroke:#54453b;stroke-width:0.66;stroke-linecap:round;stroke-linejoin:round;stroke-dasharray:none;stroke-opacity:1;paint-order:markers fill stroke"
                   d="m 137.09241,128.01415 2.82843,-2.82844 16.28636,15.87262 -1.62109,1.62109 -1.62108,1.62109 z"
                   sodipodi:nodetypes="cccccc"
                   transform="matrix(1.0817262,1.0821659,-1.0817262,1.0821659,159.59656,-187.92484)" /><path
                   style="display:inline;fill:none;fill-opacity:0.66;stroke:#54453b;stroke-width:0.66;stroke-linecap:round;stroke-linejoin:round;stroke-dasharray:none;stroke-opacity:1;paint-order:markers fill stroke"
                   id="path197-2"
                   sodipodi:type="arc"
                   sodipodi:cx="8.3933897"
                   sodipodi:cy="180.86948"
                   sodipodi:rx="6.5790563"
                   sodipodi:ry="6.5763831"
                   sodipodi:start="0"
                   sodipodi:end="6.2670179"
                   sodipodi:open="true"
                   sodipodi:arc-type="arc"
                   d="m 14.972446,180.86948 a 6.5790563,6.5763831 0 0 1 -6.5524648,6.57633 6.5790563,6.5763831 0 0 1 -6.6054328,-6.52317 6.5790563,6.5763831 0 0 1 6.4990685,-6.62906 6.5790563,6.5763831 0 0 1 6.6579691,6.46958"
                   transform="matrix(1.5297919,0,-1.8710254e-8,1.5304137,159.59656,-187.92484)" /></g></g><g
               id="g187"
               style="fill:none;stroke:#1b3133;stroke-width:1.00987;stroke-dasharray:none;stroke-opacity:1"><path
                 style="opacity:1;fill:none;fill-opacity:1;stroke:#1b3133;stroke-width:1.00987;stroke-linecap:round;stroke-linejoin:round;stroke-dasharray:none;stroke-opacity:1;paint-order:markers fill stroke"
                 d="m 107.10108,148.60236 29.93212,49.32357"
                 id="path184"
                 sodipodi:nodetypes="cc" /><path
                 style="opacity:1;fill:none;fill-opacity:1;stroke:#1b3133;stroke-width:1.00987;stroke-linecap:round;stroke-linejoin:round;stroke-dasharray:none;stroke-opacity:1;paint-order:markers fill stroke"
                 d="m 107.10108,148.60236 c 0,0 18.82117,-2.41578 28.28899,-4.88689 9.46782,-2.4711 28.289,-9.99251 28.289,-9.99251"
                 id="path185"
                 sodipodi:nodetypes="czc" /><path
                 style="fill:none;fill-opacity:1;stroke:#1b3133;stroke-width:1.00987;stroke-linecap:round;stroke-linejoin:round;stroke-dasharray:none;stroke-opacity:1;paint-order:markers fill stroke"
                 id="path187"
                 sodipodi:type="arc"
                 sodipodi:cx="143.21623"
                 sodipodi:cy="205.0424"
                 sodipodi:rx="9.9217176"
                 sodipodi:ry="9.9217176"
                 sodipodi:start="0"
                 sodipodi:end="6.2670179"
                 sodipodi:open="true"
                 sodipodi:arc-type="arc"
                 transform="translate(0.04793249,0.60463733)"
                 d="m 153.13795,205.0424 a 9.9217176,9.9217176 0 0 1 -9.88162,9.92164 9.9217176,9.9217176 0 0 1 -9.96149,-9.84143 9.9217176,9.9217176 0 0 1 9.80109,-10.00119 9.9217176,9.9217176 0 0 1 10.04072,9.76058" /></g><path
               style="fill:none;fill-opacity:1;stroke:#1b3133;stroke-width:1.00987;stroke-linecap:round;stroke-linejoin:round;stroke-dasharray:none;stroke-opacity:1;paint-order:markers fill stroke"
               d="M 107.10108,148.60236 77.168959,197.92593"
               id="path188"
               sodipodi:nodetypes="cc" /><path
               style="fill:none;fill-opacity:1;stroke:#1b3133;stroke-width:1.00987;stroke-linecap:round;stroke-linejoin:round;stroke-dasharray:none;stroke-opacity:1;paint-order:markers fill stroke"
               d="m 107.10108,148.60236 c 0,0 -18.821174,-2.41578 -28.288991,-4.88689 -9.46782,-2.4711 -28.289,-9.99251 -28.289,-9.99251"
               id="path189"
               sodipodi:nodetypes="czc" /><path
               style="fill:none;fill-opacity:1;stroke:#1b3133;stroke-width:1.00987;stroke-linecap:round;stroke-linejoin:round;stroke-dasharray:none;stroke-opacity:1;paint-order:markers fill stroke"
               id="path190"
               sodipodi:type="arc"
               sodipodi:cx="-41.68055"
               sodipodi:cy="129.33249"
               sodipodi:rx="9.9217176"
               sodipodi:ry="9.9217176"
               sodipodi:start="0"
               sodipodi:end="6.2670179"
               sodipodi:open="true"
               sodipodi:arc-type="arc"
               transform="scale(-1,1)"
               d="m -31.758832,129.33249 a 9.9217176,9.9217176 0 0 1 -9.881616,9.92164 9.9217176,9.9217176 0 0 1 -9.961495,-9.84144 9.9217176,9.9217176 0 0 1 9.80109,-10.00119 9.9217176,9.9217176 0 0 1 10.040724,9.76059" /><path
               style="fill:none;fill-opacity:1;stroke:#1b3133;stroke-width:1.00987;stroke-linecap:round;stroke-linejoin:round;stroke-dasharray:none;stroke-opacity:1;paint-order:markers fill stroke"
               id="path191"
               sodipodi:type="arc"
               sodipodi:cx="-70.937981"
               sodipodi:cy="205.64703"
               sodipodi:rx="9.9217176"
               sodipodi:ry="9.9217176"
               sodipodi:start="0"
               sodipodi:end="6.2670179"
               sodipodi:open="true"
               sodipodi:arc-type="arc"
               transform="scale(-1,1)"
               d="m -61.016263,205.64703 a 9.9217176,9.9217176 0 0 1 -9.881616,9.92164 9.9217176,9.9217176 0 0 1 -9.961495,-9.84143 9.9217176,9.9217176 0 0 1 9.80109,-10.00119 9.9217176,9.9217176 0 0 1 10.040724,9.76058" /><path
               style="display:inline;opacity:1;fill:#1b3133;fill-opacity:1;stroke:#1b3133;stroke-width:1.00987;stroke-linecap:round;stroke-linejoin:round;stroke-dasharray:none;stroke-opacity:1;paint-order:markers fill stroke"
               id="path192"
               sodipodi:type="arc"
               sodipodi:cx="106.71982"
               sodipodi:cy="115.58764"
               sodipodi:rx="19.452915"
               sodipodi:ry="19.452915"
               sodipodi:start="0"
               sodipodi:end="6.2670179"
               sodipodi:open="true"
               sodipodi:arc-type="arc"
               transform="translate(0.04793249,0.60463733)"
               d="M 126.17273,115.58764 A 19.452915,19.452915 0 0 1 106.79844,135.0404 19.452915,19.452915 0 0 1 87.267539,115.74489 19.452915,19.452915 0 0 1 106.48395,96.136154 19.452915,19.452915 0 0 1 126.17019,115.27315" /></g></g></g><g
         inkscape:label="Preench"
         inkscape:groupmode="layer"
         id="g209"
         style="display:inline;stroke:none;stroke-width:2.29515;stroke-dasharray:none;stroke-opacity:1;paint-order:markers fill stroke"
         transform="matrix(0.65368371,0,0,0.6534181,35.021102,51.758292)"><g
           id="g195"
           style="display:inline;fill:none;fill-opacity:1;stroke:none;stroke-width:2.29515;stroke-dasharray:none;stroke-opacity:1;paint-order:markers fill stroke"><path
             id="path194"
             style="display:inline;opacity:1;fill:none;fill-opacity:1;stroke:none;stroke-width:2.29515;stroke-linecap:round;stroke-linejoin:round;stroke-dasharray:none;stroke-opacity:1;paint-order:markers fill stroke"
             d="m 82.925171,213.8009 c 7.513663,2.72018 15.623119,4.19051 24.077079,4.15634 8.17222,-0.093 16.26485,-1.61831 23.91017,-4.5067 M 37.176542,142.94683 c -0.196385,1.88503 -0.316028,3.77726 -0.358634,5.67201 0.156416,19.34743 8.16437,36.79688 20.974947,49.35357 m 98.196075,-0.57929 c 13.14626,-13.06107 20.56838,-30.80776 20.63491,-49.33911 l -0.009,-1.13016 c -0.0763,-1.26782 -0.18706,-2.53333 -0.33228,-3.79512"
             sodipodi:nodetypes="cccccccccc" /><path
             id="path195"
             style="display:inline;opacity:1;fill:none;fill-opacity:1;stroke:none;stroke-width:2.29515;stroke-linecap:round;stroke-linejoin:round;stroke-dasharray:none;stroke-opacity:1;paint-order:markers fill stroke"
             d="M 167.87709,114.54856 C 155.50906,91.903961 131.67287,77.913393 105.87209,78.154919 80.755266,78.529922 57.770747,92.352433 45.664913,114.36253"
             sodipodi:nodetypes="ccc" /></g><g
           id="g208"
           style="display:inline;stroke:none;stroke-width:2.29515;stroke-dasharray:none;stroke-opacity:1"><g
             id="g207"
             transform="translate(-0.04793249,-0.60463733)"
             style="stroke:none;stroke-width:2.29515;stroke-dasharray:none;stroke-opacity:1;paint-order:markers fill stroke"><g
               id="g199"
               style="stroke:none;stroke-width:2.29515;stroke-dasharray:none;stroke-opacity:1;paint-order:markers fill stroke"
               transform="matrix(0.70710677,-0.7073942,0.70681948,0.70710678,-43.455953,155.33132)"><path
                 id="path196"
                 style="display:inline;opacity:1;fill:#d3a27f;fill-opacity:1;stroke:none;stroke-width:2.29514;stroke-linecap:round;stroke-linejoin:round"
                 d="m 168.05098,114.34568 h 6.11917 l 0.44756,34.80135 h -3.50715 -3.50714 z"
                 sodipodi:nodetypes="cccccc" /><path
                 d="m 133.85746,112.97657 c -2.42276,-0.007 -4.75433,0.96637 -6.45645,2.71043 -3.45639,3.5413 -3.40025,9.20949 0.12557,12.67881 3.52594,3.46925 9.19438,3.43367 12.67933,-0.0796 3.48476,-3.5133 3.47437,-9.18168 -0.0232,-12.67933 l -0.10335,-0.10181 c -1.54824,-1.49913 -3.5841,-2.39142 -5.73609,-2.51405 -0.16217,-0.009 -0.32424,-0.014 -0.48576,-0.0145 z"
                 style="display:inline;fill:none;fill-opacity:1;stroke:#54453b;stroke-width:1.00987;stroke-linecap:round;stroke-linejoin:round;stroke-dasharray:none;stroke-opacity:1;paint-order:markers fill stroke;filter:url(#filter19)"
                 id="path19"
                 transform="matrix(1.0817262,1.0821659,-1.0817262,1.0821659,158.23078,-172.54359)" /><g
                 id="g198"
                 transform="translate(-1.3657795,15.381255)"
                 style="fill:#7fccd4;fill-opacity:1;stroke:none;stroke-width:2.29515"><path
                   style="display:inline;fill:#fdf9ee;fill-opacity:0.66;stroke:none;stroke-width:2.29515;stroke-linecap:round;stroke-linejoin:round;stroke-dasharray:none;stroke-opacity:1;paint-order:markers fill stroke"
                   id="path197"
                   sodipodi:type="arc"
                   sodipodi:cx="172.43495"
                   sodipodi:cy="88.882042"
                   sodipodi:rx="10.064587"
                   sodipodi:ry="10.064587"
                   sodipodi:start="0"
                   sodipodi:end="6.2670179"
                   sodipodi:open="true"
                   sodipodi:arc-type="arc"
                   d="m 182.49954,88.882042 a 10.064587,10.064587 0 0 1 -10.02391,10.064504 10.064587,10.064587 0 0 1 -10.10494,-9.983146 10.064587,10.064587 0 0 1 9.94223,-10.145205 10.064587,10.064587 0 0 1 10.1853,9.901136" /><path
                   id="path198"
                   style="fill:#d3a27f;fill-opacity:1;stroke:none;stroke-width:2.29515;stroke-linecap:round;stroke-linejoin:round;stroke-dasharray:none;stroke-opacity:1;paint-order:markers fill stroke"
                   d="m 182.69394,79.732129 a 13.746476,13.746477 0 0 0 -10.42586,-4.595149 13.746476,13.746477 0 0 0 -13.57917,13.85647 13.746476,13.746477 0 0 0 13.80165,13.63501 13.746476,13.746477 0 0 0 13.69041,-13.746296 l -0.002,-0.222012 a 13.746476,13.746477 0 0 0 -3.48535,-8.928023 z m -2.85312,2.706648 a 9.9217176,9.9217176 0 0 1 2.51549,6.443387 l 0.002,0.160498 a 9.9217176,9.9217176 0 0 1 -9.88196,9.921765 9.9217176,9.9217176 0 0 1 -9.96133,-9.841237 9.9217176,9.9217176 0 0 1 9.8009,-10.001734 9.9217176,9.9217176 0 0 1 7.52523,3.317321 z" /></g></g><g
               id="g202"
               style="stroke:none;stroke-width:2.29515;stroke-dasharray:none;stroke-opacity:1"><path
                 style="opacity:1;fill:none;fill-opacity:1;stroke:none;stroke-width:2.29515;stroke-linecap:round;stroke-linejoin:round;stroke-dasharray:none;stroke-opacity:1;paint-order:markers fill stroke"
                 d="m 107.10108,148.60236 29.93212,49.32357"
                 id="path199"
                 sodipodi:nodetypes="cc" /><path
                 style="opacity:1;fill:none;fill-opacity:1;stroke:none;stroke-width:2.29515;stroke-linecap:round;stroke-linejoin:round;stroke-dasharray:none;stroke-opacity:1;paint-order:markers fill stroke"
                 d="m 107.10108,148.60236 c 0,0 18.82117,-2.41578 28.28899,-4.88689 9.46782,-2.4711 28.289,-9.99251 28.289,-9.99251"
                 id="path200"
                 sodipodi:nodetypes="czc" /><path
                 d="m 172.52126,119.41094 c -1.51145,0.002 -3.00241,0.34991 -4.35905,1.01626 -1.96627,0.96458 -3.55815,2.55266 -4.52743,4.51662 -0.67716,1.36403 -1.03124,2.86564 -1.03482,4.3885 -2.5e-4,5.47962 4.44169,9.92194 9.9213,9.92217 1.43403,-0.006 2.84973,-0.32274 4.14956,-0.92847 2.14645,-0.99307 3.86758,-2.72023 4.85313,-4.87014 0.59895,-1.29257 0.91253,-2.69898 0.9194,-4.12356 -1.8e-4,-5.4796 -4.44248,-9.92158 -9.92209,-9.92138 z"
                 style="display:inline;opacity:1;fill:none;stroke:#1b3133;stroke-width:1.00987;stroke-linecap:round;stroke-linejoin:round;stroke-dasharray:none;stroke-opacity:1;paint-order:markers fill stroke;filter:url(#filter25)"
                 id="path186"
                 transform="translate(-2.9952415e-6)" /><path
                 style="opacity:1;fill:#7fccd4;fill-opacity:1;stroke:none;stroke-width:2.29515;stroke-linecap:round;stroke-linejoin:round;stroke-dasharray:none;stroke-opacity:1;paint-order:markers fill stroke"
                 id="path201"
                 sodipodi:type="arc"
                 sodipodi:cx="172.47368"
                 sodipodi:cy="128.72786"
                 sodipodi:rx="9.9217176"
                 sodipodi:ry="9.9217176"
                 sodipodi:start="0"
                 sodipodi:end="6.2670179"
                 sodipodi:open="true"
                 sodipodi:arc-type="arc"
                 transform="translate(0.04793249,0.60463733)"
                 d="m 182.3954,128.72786 a 9.9217176,9.9217176 0 0 1 -9.88162,9.92164 9.9217176,9.9217176 0 0 1 -9.96149,-9.84144 9.9217176,9.9217176 0 0 1 9.80109,-10.00119 9.9217176,9.9217176 0 0 1 10.04072,9.76059" /><path
                 style="fill:#7fccd4;fill-opacity:1;stroke:none;stroke-width:2.29515;stroke-linecap:round;stroke-linejoin:round;stroke-dasharray:none;stroke-opacity:1;paint-order:markers fill stroke"
                 id="path202"
                 sodipodi:type="arc"
                 sodipodi:cx="143.21623"
                 sodipodi:cy="205.0424"
                 sodipodi:rx="9.9217176"
                 sodipodi:ry="9.9217176"
                 sodipodi:start="0"
                 sodipodi:end="6.2670179"
                 sodipodi:open="true"
                 sodipodi:arc-type="arc"
                 transform="translate(0.04793249,0.60463733)"
                 d="m 153.13795,205.0424 a 9.9217176,9.9217176 0 0 1 -9.88162,9.92164 9.9217176,9.9217176 0 0 1 -9.96149,-9.84143 9.9217176,9.9217176 0 0 1 9.80109,-10.00119 9.9217176,9.9217176 0 0 1 10.04072,9.76058" /></g><path
               style="fill:none;fill-opacity:1;stroke:none;stroke-width:2.29515;stroke-linecap:round;stroke-linejoin:round;stroke-dasharray:none;stroke-opacity:1;paint-order:markers fill stroke"
               d="M 107.10108,148.60236 77.168959,197.92593"
               id="path203"
               sodipodi:nodetypes="cc" /><path
               style="fill:none;fill-opacity:1;stroke:none;stroke-width:2.29515;stroke-linecap:round;stroke-linejoin:round;stroke-dasharray:none;stroke-opacity:1;paint-order:markers fill stroke"
               d="m 107.10108,148.60236 c 0,0 -18.821174,-2.41578 -28.288991,-4.88689 -9.46782,-2.4711 -28.289,-9.99251 -28.289,-9.99251"
               id="path204"
               sodipodi:nodetypes="czc" /><path
               style="fill:#7fccd4;fill-opacity:1;stroke:none;stroke-width:2.29515;stroke-linecap:round;stroke-linejoin:round;stroke-dasharray:none;stroke-opacity:1;paint-order:markers fill stroke"
               id="path205"
               sodipodi:type="arc"
               sodipodi:cx="-41.68055"
               sodipodi:cy="129.33249"
               sodipodi:rx="9.9217176"
               sodipodi:ry="9.9217176"
               sodipodi:start="0"
               sodipodi:end="6.2670179"
               sodipodi:open="true"
               sodipodi:arc-type="arc"
               transform="scale(-1,1)"
               d="m -31.758832,129.33249 a 9.9217176,9.9217176 0 0 1 -9.881616,9.92164 9.9217176,9.9217176 0 0 1 -9.961495,-9.84144 9.9217176,9.9217176 0 0 1 9.80109,-10.00119 9.9217176,9.9217176 0 0 1 10.040724,9.76059" /><path
               style="fill:#7fccd4;fill-opacity:1;stroke:none;stroke-width:2.29515;stroke-linecap:round;stroke-linejoin:round;stroke-dasharray:none;stroke-opacity:1;paint-order:markers fill stroke"
               id="path206"
               sodipodi:type="arc"
               sodipodi:cx="-70.937981"
               sodipodi:cy="205.64703"
               sodipodi:rx="9.9217176"
               sodipodi:ry="9.9217176"
               sodipodi:start="0"
               sodipodi:end="6.2670179"
               sodipodi:open="true"
               sodipodi:arc-type="arc"
               transform="scale(-1,1)"
               d="m -61.016263,205.64703 a 9.9217176,9.9217176 0 0 1 -9.881616,9.92164 9.9217176,9.9217176 0 0 1 -9.961495,-9.84143 9.9217176,9.9217176 0 0 1 9.80109,-10.00119 9.9217176,9.9217176 0 0 1 10.040724,9.76058" /><path
               style="display:inline;opacity:1;fill:#7fccd4;fill-opacity:1;stroke:none;stroke-width:2.29515;stroke-linecap:round;stroke-linejoin:round;stroke-dasharray:none;stroke-opacity:1;paint-order:markers fill stroke"
               id="path207"
               sodipodi:type="arc"
               sodipodi:cx="106.71982"
               sodipodi:cy="115.58764"
               sodipodi:rx="19.452915"
               sodipodi:ry="19.452915"
               sodipodi:start="0"
               sodipodi:end="6.2670179"
               sodipodi:open="true"
               sodipodi:arc-type="arc"
               transform="translate(0.04793249,0.60463733)"
               d="M 126.17273,115.58764 A 19.452915,19.452915 0 0 1 106.79844,135.0404 19.452915,19.452915 0 0 1 87.267539,115.74489 19.452915,19.452915 0 0 1 106.48395,96.136154 19.452915,19.452915 0 0 1 126.17019,115.27315" /></g></g></g></g></g></svg>
